<svg xmlns="http://www.w3.org/2000/svg" xmlns:xlink="http://www.w3.org/1999/xlink" width="512" zoomAndPan="magnify" viewBox="0 0 384 383.999986" height="512" preserveAspectRatio="xMidYMid meet" version="1.0"><defs><clipPath id="2862d14cf9"><path d="M 36.886719 270 L 138 270 L 138 361.757812 L 36.886719 361.757812 Z M 36.886719 270 " clip-rule="nonzero"/></clipPath><clipPath id="99575caef0"><path d="M 188 22.007812 L 347.386719 22.007812 L 347.386719 361.757812 L 188 361.757812 Z M 188 22.007812 " clip-rule="nonzero"/></clipPath><clipPath id="5a4d5cc203"><path d="M 36.886719 22.007812 L 200 22.007812 L 200 235 L 36.886719 235 Z M 36.886719 22.007812 " clip-rule="nonzero"/></clipPath></defs><rect x="-38.4" width="460.8" fill="#ffffff" y="-38.399999" height="460.799983" fill-opacity="1"/><rect x="-38.4" width="460.8" fill="#000000" y="-38.399999" height="460.799983" fill-opacity="1"/><g clip-path="url(#2862d14cf9)"><path fill="#6d5bd0" d="M 137.820312 270.160156 L 137.820312 357.355469 C 137.820312 359.90625 135.734375 361.992188 133.179688 361.992188 L 41.523438 361.992188 C 38.972656 361.992188 36.886719 359.90625 36.886719 357.355469 L 36.886719 325.671875 C 71.765625 308.554688 105.554688 290.214844 137.820312 270.160156 " fill-opacity="1" fill-rule="evenodd"/></g><g clip-path="url(#99575caef0)"><path fill="#f0a020" d="M 195.027344 90.785156 L 246.183594 54.96875 L 246.183594 26.644531 C 246.183594 24.09375 248.265625 22.007812 250.820312 22.007812 L 342.472656 22.007812 C 345.027344 22.007812 347.113281 24.09375 347.113281 26.644531 L 347.113281 357.355469 C 347.113281 359.90625 345.027344 361.992188 342.472656 361.992188 L 250.820312 361.992188 C 248.265625 361.992188 246.183594 359.90625 246.183594 357.355469 L 246.183594 236.324219 L 188.363281 236.324219 C 211.714844 219.457031 234.035156 201.433594 255.132812 182.027344 L 277.117188 204.011719 L 316.152344 58.328125 Z M 195.027344 90.785156 " fill-opacity="1" fill-rule="evenodd"/></g><g clip-path="url(#5a4d5cc203)"><path fill="#6d5bd0" d="M 137.820312 145.789062 L 161.007812 145.789062 L 199.882812 126.777344 C 153.359375 173.472656 99.199219 209.46875 36.886719 234.054688 L 36.886719 26.644531 C 36.886719 24.09375 38.972656 22.007812 41.523438 22.007812 L 133.179688 22.007812 C 135.734375 22.007812 137.820312 24.09375 137.820312 26.644531 Z M 137.820312 145.789062 " fill-opacity="1" fill-rule="evenodd"/></g></svg>